<svg width="11.000000" height="20.000000" viewBox="0 0 11 20" fill="none" xmlns="http://www.w3.org/2000/svg" xmlns:xlink="http://www.w3.org/1999/xlink">
	<desc>
			Created with Pixso.
	</desc>
	<defs/>
	<path id="Vector" d="M10.73 0.26C10.81 0.35 10.88 0.45 10.93 0.56C10.97 0.67 11 0.79 11 0.9C11 1.02 10.97 1.14 10.93 1.25C10.88 1.36 10.81 1.46 10.73 1.55L2.21 10L10.73 18.44C10.9 18.61 10.99 18.84 10.99 19.09C10.99 19.33 10.9 19.56 10.73 19.73C10.55 19.9 10.32 20 10.08 20C9.83 20 9.6 19.9 9.43 19.73L0.26 10.64C0.18 10.55 0.11 10.45 0.06 10.34C0.02 10.23 0 10.11 0 10C0 9.88 0.02 9.76 0.06 9.65C0.11 9.54 0.18 9.44 0.26 9.35L9.43 0.26C9.51 0.18 9.62 0.11 9.73 0.06C9.84 0.02 9.96 0 10.08 0C10.2 0 10.32 0.02 10.43 0.06C10.54 0.11 10.64 0.18 10.73 0.26Z" fill="#030313" fill-opacity="1.000000" fill-rule="nonzero"/>
</svg>
