<svg width="11.000000" height="20.000000" viewBox="0 0 11 20" fill="none" xmlns="http://www.w3.org/2000/svg" xmlns:xlink="http://www.w3.org/1999/xlink">
	<desc>
			Created with Pixso.
	</desc>
	<defs/>
	<path id="Vector" d="M10.73 19.73C10.81 19.64 10.88 19.54 10.93 19.43C10.97 19.32 11 19.2 11 19.09C11 18.97 10.97 18.85 10.93 18.74C10.88 18.63 10.81 18.53 10.73 18.44L2.21 9.99L10.73 1.55C10.9 1.38 10.99 1.15 10.99 0.9C10.99 0.66 10.9 0.43 10.73 0.26C10.55 0.09 10.32 0 10.08 0C9.83 0 9.6 0.09 9.43 0.26L0.26 9.35C0.18 9.44 0.11 9.54 0.06 9.65C0.02 9.76 0 9.88 0 9.99C0 10.11 0.02 10.23 0.06 10.34C0.11 10.45 0.18 10.55 0.26 10.64L9.43 19.73C9.51 19.81 9.62 19.88 9.73 19.93C9.84 19.97 9.96 20 10.08 20C10.2 20 10.32 19.97 10.43 19.93C10.54 19.88 10.64 19.81 10.73 19.73Z" fill="#DBDBDB" fill-opacity="1.000000" fill-rule="evenodd"/>
</svg>
