<?xml version="1.0" encoding="UTF-8"?>
<svg xmlns="http://www.w3.org/2000/svg" viewBox="0 0 1080 1080">
  <defs>
    <style>
      .cls-1 {
        fill: #b62d2d;
      }

      .cls-2 {
        fill: #333;
      }

      .cls-3 {
        fill: #606060;
      }
    </style>
  </defs>
  <g id="_Слой_1" data-name="Слой 1">
    <rect width="1080" height="1080"/>
  </g>
  <g id="_Слой_3" data-name="Слой 3">
    <g>
      <path class="cls-2" d="M476.73,313.93l.61,148.48,262.97,181.76,90.73-48.29c19.04-10.14,20.01-28.33,2.15-40.43l-356.46-241.51Z"/>
      <path class="cls-3" d="M477.07,784.27l.27-321.87c42.25,29.2,84.51,58.41,126.76,87.61,.66,55.2,1.32,110.39,1.98,165.59l-129.01,68.67Z"/>
      <path class="cls-1" d="M460.67,479.93c.08,.05,.16,.13,.24,.17-.07,104.31-.17,208.6-.25,312.89l-89.82,47.81c-21.55,11.47-39.2,.88-39.22-23.54l-.31-425.95s.01,.02,.04,.01l-.1-128.85c-.02-26.7,17.99-36.2,40.02-21.11,29.85,20.45,59.71,40.9,89.57,61.33-.04,59.08-.11,118.17-.16,177.23Z"/>
    </g>
  </g>
</svg>